<svg width="121" height="121" viewBox="0 0 121 121" fill="none" xmlns="http://www.w3.org/2000/svg">
<g filter="url(#filter0_d_88_167)">
<g clip-path="url(#clip0_88_167)">
<rect x="9" y="5" width="102.375" height="102.375" rx="17.8043" fill="#301F44"/>
<path d="M62.1588 35C64.5212 35.0063 65.7202 35.0189 66.7555 35.0483L67.1629 35.063C67.6332 35.0798 68.0973 35.1008 68.658 35.126C70.8923 35.231 72.4168 35.5838 73.7544 36.1025C75.1404 36.6359 76.3079 37.3583 77.4755 38.5237C78.5437 39.5731 79.3699 40.8431 79.8966 42.2448C80.4153 43.5825 80.7681 45.1071 80.8731 47.3435C80.8983 47.9021 80.9193 48.3662 80.9361 48.8387L80.9487 49.2461C80.9802 50.2792 80.9928 51.4783 80.997 53.8408L80.9991 55.4073V58.1583C81.0042 59.69 80.9881 61.2217 80.9508 62.7529L80.9382 63.1603C80.9214 63.6328 80.9004 64.0969 80.8752 64.6555C80.7702 66.8919 80.4132 68.4144 79.8966 69.7542C79.3699 71.1559 78.5437 72.4259 77.4755 73.4753C76.4261 74.5435 75.1562 75.3698 73.7544 75.8965C72.4168 76.4152 70.8923 76.768 68.658 76.873L67.1629 76.936L66.7555 76.9486C65.7202 76.978 64.5212 76.9927 62.1588 76.9969L60.5923 76.999H57.8435C56.3112 77.0044 54.7788 76.9883 53.2469 76.9507L52.8395 76.9381C52.341 76.9192 51.8426 76.8975 51.3444 76.873C49.1101 76.768 47.5856 76.4152 46.2458 75.8965C44.8448 75.3696 43.5757 74.5433 42.5269 73.4753C41.458 72.4261 40.6309 71.1561 40.1036 69.7542C39.585 68.4165 39.2322 66.8919 39.1272 64.6555L39.0642 63.1603L39.0537 62.7529C39.015 61.2217 38.9975 59.69 39.0012 58.1583V53.8408C38.9954 52.3091 39.0108 50.7773 39.0474 49.2461L39.0621 48.8387C39.0789 48.3662 39.0999 47.9021 39.1251 47.3435C39.2301 45.1071 39.5829 43.5846 40.1015 42.2448C40.6301 40.8425 41.4585 39.5725 42.529 38.5237C43.5772 37.456 44.8456 36.6297 46.2458 36.1025C47.5856 35.5838 49.108 35.231 51.3444 35.126C51.9029 35.1008 52.3691 35.0798 52.8395 35.063L53.2469 35.0504C54.7781 35.0131 56.3098 34.997 57.8414 35.0021L62.1588 35ZM60.0001 45.4998C57.2155 45.4998 54.5449 46.606 52.5759 48.5751C50.6069 50.5441 49.5007 53.2148 49.5007 55.9995C49.5007 58.7842 50.6069 61.4549 52.5759 63.4239C54.5449 65.393 57.2155 66.4993 60.0001 66.4993C62.7848 66.4993 65.4553 65.393 67.4244 63.4239C69.3934 61.4549 70.4996 58.7842 70.4996 55.9995C70.4996 53.2148 69.3934 50.5441 67.4244 48.5751C65.4553 46.606 62.7848 45.4998 60.0001 45.4998ZM60.0001 49.6997C60.8274 49.6995 61.6466 49.8623 62.411 50.1788C63.1754 50.4953 63.8699 50.9592 64.455 51.5441C65.0401 52.129 65.5042 52.8234 65.8209 53.5877C66.1376 54.352 66.3007 55.1712 66.3009 55.9985C66.301 56.8258 66.1382 57.645 65.8217 58.4094C65.5053 59.1738 65.0414 59.8683 64.4565 60.4534C63.8716 61.0385 63.1772 61.5027 62.4129 61.8194C61.6487 62.1361 60.8295 62.2992 60.0022 62.2994C58.3315 62.2994 56.7291 61.6356 55.5477 60.4542C54.3663 59.2727 53.7026 57.6703 53.7026 55.9995C53.7026 54.3287 54.3663 52.7263 55.5477 51.5448C56.7291 50.3634 58.3315 49.6997 60.0022 49.6997M71.0267 42.3498C70.3305 42.3498 69.6629 42.6264 69.1706 43.1187C68.6784 43.6109 68.4018 44.2786 68.4018 44.9748C68.4018 45.6709 68.6784 46.3386 69.1706 46.8309C69.6629 47.3232 70.3305 47.5997 71.0267 47.5997C71.7228 47.5997 72.3905 47.3232 72.8827 46.8309C73.375 46.3386 73.6515 45.6709 73.6515 44.9748C73.6515 44.2786 73.375 43.6109 72.8827 43.1187C72.3905 42.6264 71.7228 42.3498 71.0267 42.3498Z" fill="url(#paint0_linear_88_167)"/>
</g>
</g>
<defs>
<filter id="filter0_d_88_167" x="0.097846" y="0.548923" width="120.179" height="120.179" filterUnits="userSpaceOnUse" color-interpolation-filters="sRGB">
<feFlood flood-opacity="0" result="BackgroundImageFix"/>
<feColorMatrix in="SourceAlpha" type="matrix" values="0 0 0 0 0 0 0 0 0 0 0 0 0 0 0 0 0 0 127 0" result="hardAlpha"/>
<feOffset dy="4.45108"/>
<feGaussianBlur stdDeviation="4.45108"/>
<feComposite in2="hardAlpha" operator="out"/>
<feColorMatrix type="matrix" values="0 0 0 0 0.804808 0 0 0 0 0.0240385 0 0 0 0 1 0 0 0 1 0"/>
<feBlend mode="normal" in2="BackgroundImageFix" result="effect1_dropShadow_88_167"/>
<feBlend mode="normal" in="SourceGraphic" in2="effect1_dropShadow_88_167" result="shape"/>
</filter>
<linearGradient id="paint0_linear_88_167" x1="63.2883" y1="77" x2="60.0747" y2="45.5374" gradientUnits="userSpaceOnUse">
<stop stop-color="#7129FF"/>
<stop offset="1" stop-color="#FD00E3"/>
</linearGradient>
<clipPath id="clip0_88_167">
<rect x="9" y="5" width="102.375" height="102.375" rx="17.8043" fill="white"/>
</clipPath>
</defs>
</svg>
