<svg width="352" height="905" viewBox="0 0 352 905" fill="none" xmlns="http://www.w3.org/2000/svg">
<g style="mix-blend-mode:overlay" clip-path="url(#clip0_86_1000)">
<path opacity="0.5" d="M40.5106 544.528L-22.1836 580.754L-22.1836 653.187L-21.9333 653.333L40.5106 689.414L103.205 653.187L103.205 580.754L102.955 580.608L40.5106 544.528ZM-21.2034 581.318L40.5106 545.675L102.225 581.318L102.225 652.602L40.5106 688.245L-21.2034 652.603L-21.2034 581.318Z" fill="#D0D9DD"/>
<path opacity="0.5" d="M40.5106 400.81L-22.1836 437.037L-22.1836 509.469L-21.9333 509.616L40.5106 545.696L103.205 509.469L103.205 437.037L102.955 436.891L40.5106 400.81ZM-21.2034 437.6L40.5106 401.958L102.225 437.6L102.225 508.885L40.5106 544.528L-21.2034 508.885L-21.2034 437.6Z" fill="#D0D9DD"/>
<path opacity="0.5" d="M-21.7043 724.2L-84.3984 760.427L-84.3984 832.86L-84.1482 833.006L-21.7043 869.086L40.9899 832.86L40.9899 760.427L40.7397 760.281L-21.7043 724.2ZM-83.4182 760.99L-21.7043 725.348L40.0097 760.99L40.0097 832.275L-21.7043 867.918L-83.4182 832.275L-83.4182 760.99Z" fill="#D0D9DD"/>
<path opacity="0.5" d="M-21.7043 364.876L-84.3984 401.102L-84.3984 473.535L-84.1482 473.681L-21.7043 509.762L40.9899 473.535L40.9899 401.102L40.7397 400.956L-21.7043 364.876ZM-83.4182 401.666L-21.7043 366.023L40.0097 401.666L40.0097 472.951L-21.7043 508.593L-83.4182 472.951L-83.4182 401.666Z" fill="#D0D9DD"/>
<path opacity="0.5" d="M40.5106 688.266L-22.1836 724.492L-22.1836 796.925L-21.9333 797.071L40.5106 833.152L103.205 796.925L103.205 724.492L102.955 724.346L40.5106 688.266ZM-21.2034 725.056L40.5106 689.414L102.225 725.056L102.225 796.341L40.5106 831.983L-21.2034 796.341L-21.2034 725.056Z" fill="#D0D9DD"/>
<path opacity="0.5" d="M102.704 580.462L40.0098 616.689L40.0098 689.121L40.2601 689.267L102.704 725.348L165.398 689.121L165.398 616.689L165.148 616.543L102.704 580.462ZM40.99 617.252L102.704 581.61L164.418 617.252L164.418 688.537L102.704 724.179L40.99 688.537L40.99 617.252Z" fill="#D0D9DD"/>
<path opacity="0.5" d="M289.306 688.266L226.611 724.492L226.611 796.925L226.862 797.071L289.306 833.152L352 796.925L352 724.492L351.749 724.346L289.306 688.266ZM227.592 725.056L289.306 689.414L351.019 725.056L351.019 796.341L289.306 831.983L227.592 796.341L227.592 725.056Z" fill="#D0D9DD"/>
<path d="M102.704 437.016L39.7598 473.368L39.7598 546.093L40.1352 546.301L102.704 582.445L165.649 546.093L165.649 473.368L165.273 473.159L102.704 437.016ZM41.2406 474.244L102.704 438.748L164.168 474.244L164.168 545.237L102.704 580.733L41.2406 545.237L41.2406 474.244Z" fill="white"/>
<path d="M-21.704 508.322L-84.6484 544.674L-84.6484 617.398L-84.273 617.607L-21.704 653.75L41.2405 617.398L41.2405 544.674L40.8651 544.465L-21.704 508.322ZM-83.1676 545.55L-21.704 510.054L39.7597 545.55L39.7597 616.543L-21.704 652.039L-83.1676 616.543L-83.1676 545.55Z" fill="white"/>
<path d="M-21.704 292.735L-22.0794 292.944L-84.6484 329.087L-84.6484 401.812L-84.273 402.02L-21.704 438.164L41.2405 401.812L41.2405 329.087L40.8651 328.878L-21.704 292.735ZM-83.1676 329.964L-21.704 294.467L39.7597 329.964L39.7597 400.956L-21.704 436.453L-83.1676 400.956L-83.1676 329.964Z" fill="white"/>
<path d="M-21.704 148.997L-22.0794 149.206L-84.6484 185.349L-84.6484 258.074L-84.273 258.282L-21.704 294.426L-21.3286 294.217L41.2405 258.074L41.2405 185.349L40.8651 185.14L-21.704 148.997ZM-83.1676 186.225L-21.704 150.729L39.7597 186.225L39.7597 257.218L-21.704 292.714L-83.1676 257.218L-83.1676 186.225Z" fill="white"/>
<path d="M40.5109 616.105L-22.4336 652.456L-22.4336 725.181L-22.0582 725.39L40.5109 761.533L103.455 725.181L103.455 652.456L103.08 652.248L40.5109 616.105ZM-20.9528 653.333L40.5109 617.837L101.975 653.333L101.975 724.326L40.5109 759.822L-20.9528 724.326L-20.9528 653.333Z" fill="white"/>
<path d="M164.898 687.974L101.953 724.326L101.953 797.05L102.329 797.259L164.898 833.402L227.842 797.05L227.842 724.325L227.467 724.117L164.898 687.974ZM103.434 725.202L164.898 689.706L226.361 725.202L226.361 796.195L164.898 831.691L103.434 796.195L103.434 725.202Z" fill="white"/>
<path d="M227.112 723.908L164.168 760.26L164.168 832.985L164.543 833.193L227.112 869.337L290.057 832.985L290.057 760.26L289.681 760.051L227.112 723.908ZM165.649 761.137L227.112 725.64L288.576 761.137L288.576 832.129L227.112 867.626L165.649 832.129L165.649 761.137Z" fill="white"/>
<path opacity="0.5" d="M44.3483 834.779L44.3483 830.335L40.5108 828.123L36.6523 830.335L36.6523 834.779L40.5108 837.012L44.3483 834.779Z" fill="#D0D9DD"/>
<path opacity="0.5" d="M44.2433 475.747L44.2433 471.427L40.51 469.257L36.7559 471.427L36.7559 475.747L40.51 477.917L44.2433 475.747Z" fill="#D0D9DD"/>
<path opacity="0.5" d="M43.8472 403.711L43.8472 399.85L40.5102 397.93L37.1523 399.85L37.1523 403.711L40.5102 405.651L43.8472 403.711Z" fill="#D0D9DD"/>
<path opacity="0.5" d="M46.8499 261.851L46.8499 254.526L40.5096 250.874L34.1484 254.526L34.1484 261.851L40.5096 265.523L46.8499 261.851Z" fill="#D0D9DD"/>
<path opacity="0.5" d="M167.485 762.263L167.485 759.279L164.899 757.777L162.312 759.279L162.312 762.263L164.899 763.766L167.485 762.263Z" fill="#D0D9DD"/>
<path opacity="0.5" d="M169.154 691.438L169.154 686.513L164.899 684.05L160.645 686.513L160.645 691.438L164.899 693.9L169.154 691.438Z" fill="#D0D9DD"/>
<path opacity="0.5" d="M169.528 619.84L169.528 614.498L164.898 611.847L160.289 614.498L160.289 619.84L164.898 622.511L169.528 619.84Z" fill="#D0D9DD"/>
<path opacity="0.5" d="M108.106 799.867L108.106 793.628L102.705 790.498L97.3027 793.628L97.3027 799.867L102.705 802.977L108.106 799.867Z" fill="#D0D9DD"/>
<path opacity="0.5" d="M107.124 727.56L107.124 722.427L102.703 719.881L98.2812 722.427L98.2812 727.56L102.703 730.106L107.124 727.56Z" fill="#D0D9DD"/>
<path opacity="0.5" d="M105.979 439.896L105.979 436.098L102.704 434.22L99.4297 436.098L99.4297 439.896L102.704 441.774L105.979 439.896Z" fill="#D0D9DD"/>
<path opacity="0.5" d="M230.261 870.317L230.261 866.666L227.112 864.85L223.963 866.666L223.963 870.317L227.112 872.133L230.261 870.317Z" fill="#D0D9DD"/>
<path opacity="0.5" d="M294.979 692.252L294.979 685.699L289.306 682.402L283.633 685.699L283.633 692.252L289.306 695.528L294.979 692.252Z" fill="#D0D9DD"/>
<path opacity="0.5" d="M233.452 728.666L233.452 721.321L227.111 717.648L220.75 721.321L220.75 728.666L227.111 732.339L233.452 728.666Z" fill="#D0D9DD"/>
<path d="M43.1177 546.886L43.1177 543.86L40.5107 542.357L37.8828 543.86L37.8828 546.886L40.5107 548.409L43.1177 546.886Z" fill="white"/>
<path d="M43.1177 762.284L43.1177 759.258L40.5107 757.756L37.8828 759.258L37.8828 762.284L40.5107 763.787L43.1177 762.284Z" fill="white"/>
<path d="M43.9301 690.958L43.9301 686.993L40.5096 685.01L37.0684 686.993L37.0684 690.958L40.5096 692.919L43.9301 690.958Z" fill="white"/>
<path d="M45.0354 332.614L45.0354 327.376L40.5096 324.747L35.9629 327.376L35.9629 332.614L40.5096 335.222L45.0354 332.614Z" fill="white"/>
<path d="M169.362 835.134L169.362 829.98L164.899 827.413L160.436 829.98L160.436 835.134L164.899 837.722L169.362 835.134Z" fill="white"/>
<path d="M167.13 546.656L167.13 544.089L164.898 542.816L162.687 544.089L162.687 546.656L164.898 547.929L167.13 546.656Z" fill="white"/>
<path d="M107.898 656.254L107.898 650.244L102.705 647.239L97.5117 650.244L97.5117 656.254L102.705 659.239L107.898 656.254Z" fill="white"/>
<path d="M105.124 582.904L105.124 580.087L102.704 578.688L100.285 580.087L100.285 582.904L102.704 584.302L105.124 582.904Z" fill="white"/>
<path d="M292.643 762.702L292.643 758.841L289.306 756.921L285.969 758.841L285.969 762.702L289.306 764.621L292.643 762.702Z" fill="white"/>
</g>
<defs>
<clipPath id="clip0_86_1000">
<rect width="623" height="905" fill="white" transform="matrix(1 -8.74228e-08 -8.74228e-08 -1 -271 905)"/>
</clipPath>
</defs>
</svg>
