<svg width="185" height="196" viewBox="0 0 185 196" fill="none" xmlns="http://www.w3.org/2000/svg">
<g style="mix-blend-mode:overlay" clip-path="url(#clip0_295_1662)">
<path opacity="0.5" d="M106.806 -27.9511L106.869 -27.9149L122.361 -18.9695L122.361 -1.0114L122.299 -0.975198L106.806 7.97021L106.744 7.93399L91.2515 -1.0114L91.2515 -18.9695L91.3136 -19.0057L106.806 -27.9511ZM122.118 -18.8298L106.806 -27.6666L91.4947 -18.8298L91.4947 -1.15627L106.806 7.68048L122.118 -1.15627L122.118 -18.8298Z" fill="#D0D9DD"/>
<path opacity="0.5" d="M-1.21895 -19.0419L-1.15686 -19.0057L14.3359 -10.0603L14.3359 7.89778L14.2738 7.93398L-1.21896 16.8794L-1.28105 16.8432L-16.7739 7.89777L-16.7738 -10.0603L-16.7118 -10.0965L-1.21895 -19.0419ZM14.0927 -9.92061L-1.21895 -18.7574L-16.5306 -9.92061L-16.5306 7.75291L-1.21896 16.5897L14.0927 7.75291L14.0927 -9.92061Z" fill="#D0D9DD"/>
<path opacity="0.5" d="M-1.21895 16.5899L-1.15686 16.6261L14.3359 25.5715L14.3359 43.5296L14.2738 43.5658L-1.21896 52.5112L-1.28105 52.475L-16.7739 43.5296L-16.7738 25.5715L-16.7118 25.5353L-1.21895 16.5899ZM14.0927 25.7112L-1.21895 16.8745L-16.5306 25.7112L-16.5306 43.3847L-1.21896 52.2215L14.0927 43.3847L14.0927 25.7112Z" fill="#D0D9DD"/>
<g opacity="0.5">
<path d="M-1.21895 141.308L14.3359 150.29L14.3359 168.248L14.2738 168.284L-1.21896 177.229L-16.7739 168.248L-16.7738 150.29L-16.7118 150.254L-1.21895 141.308ZM14.0927 150.429L-1.21895 141.593L-16.5306 150.429L-16.5306 168.103L-1.21896 176.94L14.0927 168.103L14.0927 150.429Z" fill="#D0D9DD"/>
</g>
<path opacity="0.5" d="M14.2107 7.68073L14.2728 7.71695L29.7656 16.6624L29.7656 34.6204L29.7035 34.6567L14.2107 43.602L14.1486 43.5658L-1.34416 34.6204L-1.34416 16.6624L-1.28207 16.6261L14.2107 7.68073ZM29.5224 16.802L14.2107 7.96529L-1.10097 16.802L-1.10097 34.4756L14.2107 43.3123L29.5224 34.4756L29.5224 16.802Z" fill="#D0D9DD"/>
<path opacity="0.5" d="M14.2107 25.4991L14.2728 25.5353L29.7656 34.4807L29.7656 52.4388L29.7035 52.475L14.2107 61.4204L-1.34416 52.4388L-1.34416 34.4807L-1.28207 34.4445L14.2107 25.4991ZM29.5224 34.6204L14.2107 25.7836L-1.10097 34.6204L-1.10097 52.2939L14.2107 61.1307L29.5224 52.2939L29.5224 34.6204Z" fill="#D0D9DD"/>
<path opacity="0.5" d="M14.2107 78.9488L29.7656 87.9304L29.7656 105.888L29.7035 105.925L14.2107 114.87L-1.34416 105.888L-1.34416 87.9304L-1.28207 87.8942L14.2107 78.9488ZM29.5224 88.0701L14.2107 79.2333L-1.10097 88.0701L-1.10097 105.744L14.2107 114.58L29.5224 105.744L29.5224 88.0701Z" fill="#D0D9DD"/>
<path opacity="0.5" d="M60.5096 -19.0419L60.5717 -19.0057L76.0645 -10.0603L76.0645 7.89778L76.0024 7.93398L60.5096 16.8794L60.4475 16.8432L44.9547 7.89777L44.9547 -10.0603L45.0168 -10.0965L60.5096 -19.0419ZM75.8212 -9.92061L60.5096 -18.7574L45.1979 -9.92061L45.1979 7.75291L60.5096 16.5897L75.8212 7.75291L75.8212 -9.92061Z" fill="#D0D9DD"/>
<path opacity="0.5" d="M60.5096 52.2212L60.5717 52.2575L76.0645 61.2029L76.0645 79.161L76.0024 79.1972L60.5096 88.1426L44.9547 79.1609L44.9547 61.2029L45.0168 61.1667L60.5096 52.2212ZM75.8212 61.3426L60.5096 52.5058L45.1979 61.3426L45.1979 79.0161L60.5096 87.8528L75.8212 79.0161L75.8212 61.3426Z" fill="#D0D9DD"/>
<path opacity="0.5" d="M75.9432 -10.1381L76.0052 -10.1019L91.498 -1.15648L91.498 16.8016L91.436 16.8378L75.9432 25.7832L75.8811 25.747L60.3883 16.8016L60.3883 -1.15649L60.4504 -1.19271L75.9432 -10.1381ZM91.2548 -1.0168L75.9432 -9.85356L60.6315 -1.0168L60.6315 16.6567L75.9432 25.4935L91.2548 16.6567L91.2548 -1.0168Z" fill="#D0D9DD"/>
<path opacity="0.5" d="M75.9432 7.68073L76.0052 7.71695L91.498 16.6624L91.498 34.6204L91.436 34.6567L75.9432 43.602L75.8811 43.5658L60.3883 34.6204L60.3883 16.6624L60.4504 16.6261L75.9432 7.68073ZM91.2548 16.802L75.9432 7.96529L60.6315 16.802L60.6315 34.4756L75.9432 43.3123L91.2548 34.4756L91.2548 16.802Z" fill="#D0D9DD"/>
<path opacity="0.5" d="M75.9451 61.1309L91.5 70.1125L91.5 88.0706L91.4379 88.1068L75.9451 97.0522L60.3902 88.0706L60.3902 70.1125L60.4523 70.0763L75.9451 61.1309ZM91.2568 70.2522L75.9451 61.4155L60.6334 70.2522L60.6334 87.9258L75.9451 96.7625L91.2568 87.9258L91.2568 70.2522Z" fill="#D0D9DD"/>
<path opacity="0.5" d="M91.3748 16.5899L91.4369 16.6261L106.93 25.5715L106.93 43.5296L106.868 43.5658L91.3748 52.5112L91.3127 52.475L75.8199 43.5296L75.8199 25.5715L75.882 25.5353L91.3748 16.5899ZM106.686 25.7112L91.3748 16.8745L76.0631 25.7112L76.0631 43.3847L91.3748 52.2215L106.686 43.3847L106.686 25.7112Z" fill="#D0D9DD"/>
<path opacity="0.5" d="M29.6463 16.5899L29.7084 16.6261L45.2012 25.5715L45.2012 43.5296L45.1391 43.5658L29.6463 52.5112L29.5842 52.475L14.0914 43.5296L14.0914 25.5715L14.1535 25.5353L29.6463 16.5899ZM44.958 25.7112L29.6463 16.8745L14.3346 25.7112L14.3346 43.3847L29.6463 52.2215L44.958 43.3847L44.958 25.7112Z" fill="#D0D9DD"/>
<path opacity="0.5" d="M29.6482 105.676L45.2031 114.658L45.2031 132.616L45.141 132.652L29.6482 141.598L14.0933 132.616L14.0933 114.658L14.1554 114.622L29.6482 105.676ZM44.9599 114.798L29.6482 105.961L14.3365 114.798L14.3365 132.471L29.6482 141.308L44.9599 132.471L44.9599 114.798Z" fill="#D0D9DD"/>
<path opacity="0.5" d="M29.6463 70.0396L45.2012 79.0212L45.2012 96.9793L45.1391 97.0155L29.6463 105.961L14.0914 96.9793L14.0914 79.0212L14.1535 78.985L29.6463 70.0396ZM44.958 79.1609L29.6463 70.3242L14.3346 79.1609L14.3346 96.8344L29.6463 105.671L44.958 96.8344L44.958 79.1609Z" fill="#D0D9DD"/>
<path opacity="0.5" d="M75.9432 25.4991L76.0052 25.5353L91.498 34.4807L91.498 52.4388L91.436 52.475L75.9432 61.4204L60.3883 52.4388L60.3883 34.4807L60.4504 34.4445L75.9432 25.4991ZM91.2548 34.6204L75.9432 25.7836L60.6315 34.6204L60.6315 52.2939L75.9432 61.1307L91.2548 52.2939L91.2548 34.6204Z" fill="#D0D9DD"/>
<path d="M122.242 -1.44061L122.336 -1.38888L137.859 7.57206L137.859 25.6026L137.766 25.6543L122.242 34.6152L122.149 34.5635L106.625 25.6026L106.625 7.57206L106.719 7.52032L122.242 -1.44061ZM137.492 7.78935L122.242 -1.01119L106.993 7.78935L106.993 25.3904L122.242 34.191L137.492 25.3904L137.492 7.78935Z" fill="white"/>
<path d="M14.2111 -10.2053L14.3043 -10.1535L29.8281 -1.19259L29.8281 16.8379L29.735 16.8897L14.2111 25.8506L14.118 25.7988L-1.40586 16.8379L-1.40586 -1.19259L-1.31271 -1.24433L14.2111 -10.2053ZM29.4607 -0.975298L14.2111 -9.77583L-1.03845 -0.975301L-1.03846 16.6258L14.2111 25.4263L29.4607 16.6258L29.4607 -0.975298Z" fill="white"/>
<path d="M29.6467 52.1541L29.7398 52.2058L45.2637 61.1668L45.2637 79.1973L45.1705 79.249L29.6467 88.21L14.0297 79.1973L14.0297 61.1668L14.1228 61.115L29.6467 52.1541ZM44.8963 61.3841L29.6467 52.5835L14.3971 61.3841L14.3971 78.9852L29.6467 87.7857L44.8963 78.9852L44.8963 61.3841Z" fill="white"/>
<path d="M29.6467 -1.29608L29.7398 -1.24434L45.2637 7.71659L45.2637 25.7471L45.1705 25.7988L29.6467 34.7598L29.5535 34.708L14.0297 25.7471L14.0297 7.71659L14.1228 7.66485L29.6467 -1.29608ZM44.8963 7.93388L29.6467 -0.866655L14.3971 7.93388L14.3971 25.535L29.6467 34.3355L44.8963 25.535L44.8963 7.93388Z" fill="white"/>
<path d="M60.508 16.5174L60.6012 16.5691L76.125 25.5301L76.125 43.5606L76.0319 43.6123L60.508 52.5732L60.4149 52.5215L44.891 43.5606L44.891 25.5301L44.9842 25.4783L60.508 16.5174ZM75.7576 25.7474L60.508 16.9468L45.2584 25.7474L45.2584 43.3485L60.508 52.149L75.7576 43.3485L75.7576 25.7474Z" fill="white"/>
<path d="M-1.21854 34.3357L-1.1254 34.3875L14.3984 43.3484L14.3984 61.3789L14.3053 61.4307L-1.21855 70.3916L-16.8355 61.3789L-16.8355 43.3484L-16.7424 43.2967L-1.21854 34.3357ZM14.031 43.5657L-1.21854 34.7652L-16.4681 43.5657L-16.4681 61.1668L-1.21855 69.9673L14.031 61.1668L14.031 43.5657Z" fill="white"/>
<path d="M-1.21854 123.423L14.3984 132.435L14.3984 150.466L14.3053 150.518L-1.21855 159.479L-16.8355 150.466L-16.8355 132.435L-16.7424 132.384L-1.21854 123.423ZM14.031 132.653L-1.21854 123.852L-16.4681 132.653L-16.4681 150.254L-1.21855 159.054L14.031 150.254L14.031 132.653Z" fill="white"/>
<path d="M14.2111 43.2449L14.3043 43.2967L29.8281 52.2576L29.8281 70.2881L29.735 70.3398L14.2111 79.3008L-1.40586 70.2881L-1.40586 52.2576L-1.31271 52.2059L14.2111 43.2449ZM29.4607 52.4749L14.2111 43.6744L-1.03845 52.4749L-1.03846 70.076L14.2111 78.8765L29.4607 70.076L29.4607 52.4749Z" fill="white"/>
<path d="M14.2131 96.6951L29.8301 105.708L29.8301 123.738L29.7369 123.79L14.2131 132.751L-1.40391 123.738L-1.40391 105.708L-1.31075 105.656L14.2131 96.6951ZM29.4627 105.925L14.2131 97.1245L-1.0365 105.925L-1.0365 123.526L14.2131 132.327L29.4627 123.526L29.4627 105.925Z" fill="white"/>
<path d="M91.3752 -19.1144L91.4683 -19.0627L106.992 -10.1018L106.992 7.92875L106.899 7.98049L91.3752 16.9414L91.2821 16.8897L75.7582 7.92874L75.7582 -10.1018L75.8514 -10.1535L91.3752 -19.1144ZM106.625 -9.88446L91.3752 -18.685L76.1256 -9.88447L76.1256 7.71662L91.3752 16.5172L106.625 7.71662L106.625 -9.88446Z" fill="white"/>
<path d="M91.3752 34.3357L91.4683 34.3875L106.992 43.3484L106.992 61.3789L106.899 61.4307L91.3752 70.3916L75.7582 61.3789L75.7582 43.3484L75.8514 43.2967L91.3752 34.3357ZM106.625 43.5657L91.3752 34.7652L76.1256 43.5657L76.1256 61.1668L91.3752 69.9673L106.625 61.1668L106.625 43.5657Z" fill="white"/>
<path d="M91.3752 69.9671L106.992 78.9798L106.992 97.0103L106.899 97.062L91.3752 106.023L75.7582 97.0103L75.7582 78.9798L75.8514 78.928L91.3752 69.9671ZM106.625 79.1971L91.3752 70.3965L76.1256 79.1971L76.1256 96.7982L91.3752 105.599L106.625 96.7982L106.625 79.1971Z" fill="white"/>
<path opacity="0.5" d="M14.6465 78.711L14.6465 79.2077L14.2118 79.4561L13.7823 79.2077L13.7823 78.711L14.2118 78.4575L14.6465 78.711Z" fill="#D0D9DD"/>
<path opacity="0.5" d="M14.5684 96.5501L14.5684 96.964L14.2113 97.1709L13.8543 96.964L13.8543 96.5501L14.2113 96.3431L14.5684 96.5501Z" fill="#D0D9DD"/>
<path opacity="0.5" d="M15.2676 113.949L15.2676 115.17L14.212 115.781L13.1563 115.17L13.1563 113.949L14.212 113.339L15.2676 113.949Z" fill="#D0D9DD"/>
<path opacity="0.5" d="M15.2871 131.737L15.2871 132.978L14.2108 133.599L13.1396 132.978L13.1396 131.737L14.2108 131.116L15.2871 131.737Z" fill="#D0D9DD"/>
<path opacity="0.5" d="M0.0898439 176.329L0.0898438 177.84L-1.21933 178.595L-2.52851 177.84L-2.52851 176.329L-1.21933 175.574L0.0898439 176.329Z" fill="#D0D9DD"/>
<path opacity="0.5" d="M77.1289 7.07024L77.1289 8.44128L75.9439 9.12939L74.7538 8.44128L74.7538 7.07024L75.9439 6.3873L77.1289 7.07024Z" fill="#D0D9DD"/>
<path opacity="0.5" d="M62.1953 33.5752L62.1953 35.5205L60.5084 36.4932L58.8266 35.5205L58.8266 33.5752L60.5084 32.6025L62.1953 33.5752Z" fill="#D0D9DD"/>
<path opacity="0.5" d="M46.7637 42.3862L46.7637 44.3315L45.0768 45.3042L43.395 44.3315L43.395 42.3862L45.0768 41.4135L46.7637 42.3862Z" fill="#D0D9DD"/>
<path opacity="0.5" d="M76.498 78.6383L76.498 79.2798L75.9444 79.6006L75.3855 79.2798L75.3855 78.6383L75.9444 78.3123L76.498 78.6383Z" fill="#D0D9DD"/>
<path opacity="0.5" d="M30.3145 16.2071L30.3145 16.978L29.6469 17.3608L28.9794 16.978L28.9794 16.2071L29.6469 15.8191L30.3145 16.2071Z" fill="#D0D9DD"/>
<path opacity="0.5" d="M30.3086 33.994L30.3086 34.7597L29.6462 35.1426L28.9787 34.7597L28.9787 33.994L29.6462 33.6111L30.3086 33.994Z" fill="#D0D9DD"/>
<path opacity="0.5" d="M30.541 51.6523L30.541 52.6818L29.6458 53.1992L28.7506 52.6818L28.7506 51.6523L29.6458 51.1349L30.541 51.6523Z" fill="#D0D9DD"/>
<path opacity="0.5" d="M107.736 25.0176L107.736 26.0938L106.805 26.6318L105.879 26.0938L105.879 25.0176L106.805 24.4847L107.736 25.0176Z" fill="#D0D9DD"/>
<path opacity="0.5" d="M107.639 42.8776L107.639 43.8348L106.806 44.3159L105.978 43.8348L105.978 42.8776L106.806 42.4016L107.639 42.8776Z" fill="#D0D9DD"/>
<path opacity="0.5" d="M108.385 78.0483L108.385 79.8643L106.807 80.7749L105.233 79.8643L105.233 78.0483L106.807 77.1429L108.385 78.0483Z" fill="#D0D9DD"/>
<path opacity="0.5" d="M92.1934 16.1188L92.1934 17.0604L91.3758 17.5312L90.5582 17.0604L90.5582 16.1188L91.3758 15.648L92.1934 16.1188Z" fill="#D0D9DD"/>
<path opacity="0.5" d="M91.7637 51.9422L91.7637 52.3923L91.3756 52.6147L90.9875 52.3923L90.9875 51.9422L91.3756 51.7197L91.7637 51.9422Z" fill="#D0D9DD"/>
<path opacity="0.5" d="M92.4941 87.0979L92.4941 88.3914L91.3764 89.0381L90.2587 88.3914L90.2587 87.0979L91.3764 86.4512L92.4941 87.0979Z" fill="#D0D9DD"/>
<path opacity="0.5" d="M123.055 33.9116L123.055 34.848L122.242 35.3188L121.43 34.848L121.43 33.9116L122.242 33.4408L123.055 33.9116Z" fill="#D0D9DD"/>
<path opacity="0.5" d="M46.5977 113.846L46.5977 115.599L45.0763 116.479L43.555 115.599L43.555 113.846L45.0763 112.971L46.5977 113.846Z" fill="#D0D9DD"/>
<path d="M77.0508 24.9194L77.0508 26.1973L75.9434 26.8389L74.836 26.1973L74.836 24.9194L75.9434 24.2779L77.0508 24.9194Z" fill="white"/>
<path d="M46.1855 7.10105L46.1855 8.37897L45.0782 9.02051L43.9708 8.37897L43.9708 7.10105L45.0782 6.45951L46.1855 7.10105Z" fill="white"/>
<path d="M77.627 60.1836L77.627 62.1289L75.9452 63.1016L74.2583 62.1289L74.2583 60.1836L75.9452 59.2109L77.627 60.1836Z" fill="white"/>
<path d="M76.8359 96.2448L76.8359 97.2744L75.9459 97.7866L75.0559 97.2744L75.0559 96.2448L75.9459 95.7275L76.8359 96.2448Z" fill="white"/>
<path d="M107.457 7.38043L107.457 8.13061L106.805 8.5083L106.158 8.13061L106.158 7.38043L106.805 7.00792L107.457 7.38043Z" fill="white"/>
<path d="M15.5254 6.99776L15.5254 8.51368L14.211 9.26904L12.9019 8.51368L12.9019 6.99776L14.211 6.2424L15.5254 6.99776Z" fill="white"/>
<path d="M14.6816 25.2866L14.6816 25.8247L14.2108 26.0937L13.745 25.8247L13.745 25.2866L14.2108 25.0176L14.6816 25.2866Z" fill="white"/>
<path d="M15.4004 42.6708L15.4004 44.0419L14.2102 44.73L13.0252 44.0419L13.0252 42.6708L14.2102 41.9879L15.4004 42.6708Z" fill="white"/>
<path d="M14.8379 149.798L14.8379 150.517L14.2118 150.879L13.5908 150.517L13.5908 149.798L14.2118 149.441L14.8379 149.798Z" fill="white"/>
<path d="M15.5195 167.203L15.5195 168.713L14.2104 169.469L12.9063 168.713L12.9063 167.203L14.2104 166.452L15.5195 167.203Z" fill="white"/>
<path d="M30.4492 69.4911L30.4492 70.4172L29.6472 70.8828L28.8451 70.4172L28.8451 69.4911L29.6472 69.0306L30.4492 69.4911Z" fill="white"/>
<path d="M30.1797 87.4389L30.1797 88.0546L29.6467 88.3599L29.1137 88.0546L29.1137 87.4389L29.6467 87.1285L30.1797 87.4389Z" fill="white"/>
<path d="M30.2422 105.19L30.2422 105.878L29.6471 106.225L29.0469 105.878L29.0469 105.19L29.6471 104.844L30.2422 105.19Z" fill="white"/>
<path d="M30.6758 122.724L30.6758 123.919L29.646 124.514L28.6111 123.919L28.6111 122.724L29.646 122.129L30.6758 122.724Z" fill="white"/>
<path d="M30.5469 140.594L30.5469 141.629L29.6465 142.151L28.7461 141.629L28.7461 140.594L29.6465 140.072L30.5469 140.594Z" fill="white"/>
<path d="M107.936 60.5098L107.936 61.8084L106.807 62.4551L105.685 61.8084L105.685 60.5098L106.807 59.8579L107.936 60.5098Z" fill="white"/>
<path d="M92.6367 -1.92697L92.6367 -0.467974L91.3741 0.256348L90.1167 -0.467974L90.1167 -1.92697L91.3741 -2.6513L92.6367 -1.92697Z" fill="white"/>
<path d="M92.1367 69.5171L92.1367 70.3967L91.3761 70.8364L90.6154 70.3967L90.6154 69.5171L91.3761 69.0773L92.1367 69.5171Z" fill="white"/>
<path d="M92.2383 105.035L92.2383 106.033L91.3741 106.535L90.51 106.033L90.51 105.035L91.3741 104.533L92.2383 105.035Z" fill="white"/>
<path d="M138.732 24.945L138.732 26.1661L137.672 26.7817L136.611 26.1661L136.611 24.945L137.672 24.3345L138.732 24.945Z" fill="white"/>
</g>
<defs>
<clipPath id="clip0_295_1662">
<rect width="231.797" height="276.589" fill="white" transform="translate(184.094 195.183) rotate(-180)"/>
</clipPath>
</defs>
</svg>
