<svg width="121" height="121" viewBox="0 0 121 121" fill="none" xmlns="http://www.w3.org/2000/svg">
<g filter="url(#filter0_d_88_180)">
<g clip-path="url(#clip0_88_180)">
<rect x="9" y="5" width="102.375" height="102.375" rx="17.8043" fill="#301F44"/>
<path fill-rule="evenodd" clip-rule="evenodd" d="M44.0381 33.9979C44.0021 36.8489 42.0182 39.1764 38.9615 39.208C36.0239 39.2384 34.0984 36.9514 34.195 34.0998C34.1723 31.1109 36.1552 28.8506 39.1515 28.8196C42.1496 28.7885 44.0173 31.009 44.0381 33.9979ZM33.9038 76.5388L34.3239 43.3304L43.6169 43.2342L43.1968 76.4405L33.9038 76.5367L33.9038 76.5388Z" fill="url(#paint0_linear_88_180)"/>
<path fill-rule="evenodd" clip-rule="evenodd" d="M52.643 52.9302C52.6507 48.6834 52.5283 45.0631 52.4049 42.0692L60.8714 42.0572L61.313 46.721L61.5054 46.7207C62.7922 44.56 66.0043 41.2859 71.1992 41.2785C77.6116 41.2694 82.4136 45.8582 82.3955 55.8801L82.359 76.0745L72.6115 76.0883L72.6456 57.2197C72.6535 52.8309 71.2492 49.8409 67.7218 49.8459C65.0271 49.8497 63.4214 51.871 62.7775 53.8199C62.5184 54.5177 62.3898 55.4907 62.388 56.468L62.3525 76.1028L52.6051 76.1166L52.6469 52.9302L52.643 52.9302Z" fill="url(#paint1_linear_88_180)"/>
</g>
</g>
<defs>
<filter id="filter0_d_88_180" x="0.097846" y="0.548923" width="120.179" height="120.179" filterUnits="userSpaceOnUse" color-interpolation-filters="sRGB">
<feFlood flood-opacity="0" result="BackgroundImageFix"/>
<feColorMatrix in="SourceAlpha" type="matrix" values="0 0 0 0 0 0 0 0 0 0 0 0 0 0 0 0 0 0 127 0" result="hardAlpha"/>
<feOffset dy="4.45108"/>
<feGaussianBlur stdDeviation="4.45108"/>
<feComposite in2="hardAlpha" operator="out"/>
<feColorMatrix type="matrix" values="0 0 0 0 0.804808 0 0 0 0 0.0240385 0 0 0 0 1 0 0 0 1 0"/>
<feBlend mode="normal" in2="BackgroundImageFix" result="effect1_dropShadow_88_180"/>
<feBlend mode="normal" in="SourceGraphic" in2="effect1_dropShadow_88_180" result="shape"/>
</filter>
<linearGradient id="paint0_linear_88_180" x1="39.3497" y1="76.4824" x2="24.977" y2="47.8402" gradientUnits="userSpaceOnUse">
<stop stop-color="#7129FF"/>
<stop offset="1" stop-color="#FD00E3"/>
</linearGradient>
<linearGradient id="paint1_linear_88_180" x1="69.7011" y1="76.0924" x2="66.5886" y2="50.1212" gradientUnits="userSpaceOnUse">
<stop stop-color="#7129FF"/>
<stop offset="1" stop-color="#FD00E3"/>
</linearGradient>
<clipPath id="clip0_88_180">
<rect x="9" y="5" width="102.375" height="102.375" rx="17.8043" fill="white"/>
</clipPath>
</defs>
</svg>
