<svg width="121" height="121" viewBox="0 0 121 121" fill="none" xmlns="http://www.w3.org/2000/svg">
<g filter="url(#filter0_d_88_155)">
<g clip-path="url(#clip0_88_155)">
<rect x="9" y="5" width="102.375" height="102.375" rx="17.8043" fill="#301F44"/>
<path d="M50.5509 44.9383C49.4648 47.3711 49.8938 51.7299 50.0676 54.7782C48.8946 55.428 47.3886 54.2876 46.536 54.2876C45.649 54.2876 44.5901 54.8705 44.4236 55.7394C44.3041 56.3657 44.5847 57.278 46.5975 58.0726C47.3759 58.3803 49.2277 58.7424 49.6567 59.7524C50.2594 61.1716 46.5613 67.7225 40.7544 68.6782C40.5352 68.7145 40.337 68.8304 40.1981 69.0038C40.0591 69.1772 39.989 69.3958 40.0014 69.6177C40.1028 71.3826 44.0597 72.074 45.8137 72.3456C45.9929 72.5881 46.1378 73.6126 46.3676 74.3928C46.4708 74.7422 46.7369 75.1603 47.4211 75.1603C48.3135 75.1603 49.796 74.4725 52.3773 74.8997C54.9079 75.3214 57.2864 78.9091 61.8534 78.9091C66.0981 78.9091 68.6305 75.3051 71.067 74.8997C72.4771 74.6661 73.688 74.7404 75.042 75.0046C75.9742 75.1875 76.8105 75.2888 77.0766 74.3729C77.3101 73.5819 77.4531 72.5772 77.6287 72.3401C79.3664 72.0704 83.3415 71.3807 83.4411 69.6159C83.4534 69.394 83.3834 69.1754 83.2444 69.002C83.1054 68.8286 82.9073 68.7127 82.688 68.6764C76.9789 67.7351 73.1685 61.2042 73.7858 59.7506C74.213 58.7424 76.0521 58.384 76.8449 58.0708C78.3184 57.4898 79.0569 56.7748 79.0406 55.9475C79.0207 54.8886 77.7464 54.2569 76.8087 54.2569C75.8548 54.2569 74.4845 55.3864 73.3749 54.7746C73.5487 51.7009 73.9759 47.362 72.8916 44.931C70.8371 40.3279 66.2665 38 61.6977 38C57.1579 38 52.6217 40.2953 50.5509 44.9383Z" fill="url(#paint0_linear_88_155)"/>
</g>
</g>
<defs>
<filter id="filter0_d_88_155" x="0.097846" y="0.548923" width="120.179" height="120.179" filterUnits="userSpaceOnUse" color-interpolation-filters="sRGB">
<feFlood flood-opacity="0" result="BackgroundImageFix"/>
<feColorMatrix in="SourceAlpha" type="matrix" values="0 0 0 0 0 0 0 0 0 0 0 0 0 0 0 0 0 0 127 0" result="hardAlpha"/>
<feOffset dy="4.45108"/>
<feGaussianBlur stdDeviation="4.45108"/>
<feComposite in2="hardAlpha" operator="out"/>
<feColorMatrix type="matrix" values="0 0 0 0 0.804808 0 0 0 0 0.0240385 0 0 0 0 1 0 0 0 1 0"/>
<feBlend mode="normal" in2="BackgroundImageFix" result="effect1_dropShadow_88_155"/>
<feBlend mode="normal" in="SourceGraphic" in2="effect1_dropShadow_88_155" result="shape"/>
</filter>
<linearGradient id="paint0_linear_88_155" x1="65.1224" y1="78.9091" x2="62.1714" y2="48.2278" gradientUnits="userSpaceOnUse">
<stop stop-color="#7129FF"/>
<stop offset="1" stop-color="#FD00E3"/>
</linearGradient>
<clipPath id="clip0_88_155">
<rect x="9" y="5" width="102.375" height="102.375" rx="17.8043" fill="white"/>
</clipPath>
</defs>
</svg>
