<svg width="148" height="28" viewBox="0 0 148 28" fill="none" xmlns="http://www.w3.org/2000/svg">
<path d="M9.21572 24.3884C7.55424 24.3884 6.04381 24.0539 4.68442 23.385C3.32503 22.7161 2.24615 21.7128 1.44778 20.375C0.649406 19.0371 0.25022 17.3325 0.25022 15.2611V1.34351H4.61969V15.2934C4.61969 16.4155 4.8031 17.3649 5.16992 18.1417C5.53673 18.8969 6.07618 19.4579 6.78824 19.8247C7.5003 20.1916 8.34182 20.375 9.31282 20.375C10.3054 20.375 11.1469 20.1916 11.8374 19.8247C12.5279 19.4579 13.0565 18.8969 13.4234 18.1417C13.8117 17.3649 14.0059 16.4155 14.0059 15.2934V1.34351H18.3754V15.2611C18.3754 17.3325 17.9546 19.0371 17.1131 20.375C16.2932 21.7128 15.1927 22.7161 13.8117 23.385C12.4308 24.0539 10.8988 24.3884 9.21572 24.3884ZM36.0841 24V1.34351H40.4536V24H36.0841ZM21.7782 24V1.34351H26.1477V24H21.7782ZM25.5651 14.193V10.665H36.7962V14.193H25.5651ZM60.2141 27.5603L51.993 14.5814H57.0098L65.425 27.5603H60.2141ZM54.8736 24.3884C52.6295 24.3884 50.6552 23.8921 48.9505 22.8995C47.2459 21.907 45.9081 20.5368 44.9371 18.789C43.9877 17.0196 43.513 14.9806 43.513 12.6718C43.513 10.363 43.9877 8.33466 44.9371 6.58687C45.9081 4.81751 47.2459 3.43654 48.9505 2.44397C50.6552 1.4514 52.6295 0.955113 54.8736 0.955113C57.1177 0.955113 59.092 1.4514 60.7967 2.44397C62.5229 3.43654 63.8607 4.81751 64.8101 6.58687C65.7811 8.33466 66.2666 10.363 66.2666 12.6718C66.2666 14.9806 65.7811 17.0196 64.8101 18.789C63.8607 20.5368 62.5229 21.907 60.7967 22.8995C59.092 23.8921 57.1177 24.3884 54.8736 24.3884ZM54.8736 20.4721C56.2761 20.4721 57.4953 20.1592 58.531 19.5334C59.5667 18.8861 60.3651 17.9798 60.9261 16.8147C61.5087 15.6495 61.8 14.2685 61.8 12.6718C61.8 11.0534 61.5087 9.67247 60.9261 8.52885C60.3651 7.36366 59.5667 6.46819 58.531 5.84244C57.4953 5.21669 56.2761 4.90382 54.8736 4.90382C53.4711 4.90382 52.2519 5.21669 51.2162 5.84244C50.1805 6.46819 49.3713 7.36366 48.7887 8.52885C48.2277 9.67247 47.9472 11.0534 47.9472 12.6718C47.9472 14.2685 48.2277 15.6495 48.7887 16.8147C49.3713 17.9798 50.1805 18.8861 51.2162 19.5334C52.2519 20.1592 53.4711 20.4721 54.8736 20.4721Z" fill="url(#paint0_linear_712_3097)"/>
<path d="M84.1991 24.3884C82.5592 24.3884 81.0919 24.1079 79.7973 23.5469C78.5242 22.9859 77.51 22.1659 76.7548 21.087C76.0212 20.0081 75.6436 18.7027 75.622 17.1707H80.2504C80.272 17.8396 80.4338 18.4438 80.7359 18.9832C81.0595 19.5226 81.5127 19.9542 82.0953 20.2779C82.6779 20.5799 83.3683 20.731 84.1667 20.731C84.8572 20.731 85.4506 20.6231 85.9469 20.4073C86.4647 20.1916 86.8639 19.8895 87.1444 19.5011C87.4465 19.0911 87.5976 18.584 87.5976 17.9798C87.5976 17.3325 87.4357 16.7931 87.1121 16.3615C86.7884 15.93 86.3461 15.5632 85.785 15.2611C85.224 14.9374 84.5875 14.6569 83.8754 14.4195C83.1634 14.1822 82.4189 13.934 81.6421 13.6751C79.8512 13.0494 78.481 12.251 77.5316 11.28C76.5822 10.309 76.1075 9.01435 76.1075 7.39603C76.1075 6.05822 76.4311 4.9146 77.0785 3.96519C77.7474 2.9942 78.6644 2.24977 79.8296 1.73191C80.9948 1.21404 82.3218 0.955113 83.8107 0.955113C85.3427 0.955113 86.6805 1.22483 87.8241 1.76427C88.9893 2.28214 89.9064 3.03735 90.5753 4.02992C91.2658 5.02249 91.6218 6.18768 91.6434 7.5255H86.9826C86.961 6.98605 86.81 6.50056 86.5295 6.06901C86.2705 5.61588 85.9037 5.25985 85.429 5.00092C84.9543 4.74198 84.3825 4.61252 83.7136 4.61252C83.1526 4.59094 82.6455 4.67725 82.1924 4.87145C81.7392 5.04407 81.3724 5.31379 81.0919 5.68061C80.833 6.04743 80.7035 6.52214 80.7035 7.10473C80.7035 7.64417 80.8222 8.0973 81.0595 8.46412C81.3185 8.83094 81.6853 9.1546 82.16 9.43511C82.6347 9.69404 83.1957 9.94219 83.8431 10.1795C84.4904 10.4169 85.1917 10.665 85.9469 10.924C87.0905 11.3124 88.137 11.7763 89.0864 12.3157C90.0358 12.8336 90.791 13.5133 91.3521 14.3548C91.9131 15.1963 92.1936 16.2968 92.1936 17.6562C92.1936 18.8645 91.8807 19.9758 91.255 20.9899C90.6508 22.0041 89.7553 22.824 88.5686 23.4498C87.4034 24.0755 85.9469 24.3884 84.1991 24.3884ZM95.1083 24V1.34351H100.611L107.375 15.9084H107.44L114.075 1.34351H119.577V24H115.208V8.46412H115.143L109.317 20.7634H105.336L99.5749 8.46412H99.4778V24H95.1083ZM123.144 24V1.34351H128.647L135.411 15.9084H135.476L142.111 1.34351H147.613V24H143.244V8.46412H143.179L137.353 20.7634H133.372L127.611 8.46412H127.514V24H123.144Z" fill="white"/>
<defs>
<linearGradient id="paint0_linear_712_3097" x1="85.9004" y1="34" x2="85.0039" y2="2.23445" gradientUnits="userSpaceOnUse">
<stop stop-color="#7129FF"/>
<stop offset="1" stop-color="#BD00FD"/>
</linearGradient>
</defs>
</svg>
