<svg width="320" height="60" viewBox="0 0 320 60" fill="none" xmlns="http://www.w3.org/2000/svg">
<path d="M20.6671 52.86C16.9882 52.86 13.6436 52.1194 10.6335 50.6383C7.62347 49.1571 5.23452 46.9354 3.4667 43.9731C1.69888 41.0108 0.814967 37.2363 0.814967 32.6495V1.83206H10.4902V32.7212C10.4902 35.2057 10.8963 37.308 11.7086 39.028C12.5208 40.7003 13.7153 41.9425 15.292 42.7548C16.8687 43.567 18.7321 43.9731 20.8821 43.9731C23.08 43.9731 24.9434 43.567 26.4723 42.7548C28.0012 41.9425 29.1718 40.7003 29.984 39.028C30.8441 37.308 31.2741 35.2057 31.2741 32.7212V1.83206H40.9493V32.6495C40.9493 37.2363 40.0176 41.0108 38.1543 43.9731C36.3386 46.9354 33.9019 49.1571 30.8441 50.6383C27.7862 52.1194 24.3939 52.86 20.6671 52.86ZM78.6218 52V1.83206H88.297V52H78.6218ZM47.0159 52V1.83206H56.6912V52H47.0159ZM55.4012 30.2844V22.4726H80.2701V30.2844H55.4012ZM131.013 59.8835L112.809 31.1445H123.917L142.623 59.8835H131.013ZM119.187 52.86C114.218 52.86 109.846 51.7611 106.072 49.5633C102.345 47.3654 99.4067 44.3315 97.2567 40.4614C95.1066 36.5435 94.0316 32.0284 94.0316 26.916C94.0316 21.8037 95.1066 17.3125 97.2567 13.4424C99.4067 9.52448 102.345 6.46662 106.072 4.26879C109.846 2.07095 114.218 0.972036 119.187 0.972036C124.204 0.972036 128.6 2.07095 132.374 4.26879C136.197 6.46662 139.159 9.52448 141.261 13.4424C143.363 17.3125 144.415 21.8037 144.415 26.916C144.415 32.0284 143.363 36.5435 141.261 40.4614C139.159 44.3315 136.197 47.3654 132.374 49.5633C128.6 51.7611 124.204 52.86 119.187 52.86ZM119.187 44.1881C122.341 44.1881 125.064 43.4953 127.357 42.1097C129.651 40.6764 131.419 38.6697 132.661 36.0896C133.903 33.5095 134.524 30.4517 134.524 26.916C134.524 23.3326 133.903 20.2747 132.661 17.7425C131.419 15.1624 129.651 13.1796 127.357 11.794C125.064 10.4084 122.341 9.71559 119.187 9.71559C116.129 9.71559 113.454 10.4084 111.16 11.794C108.867 13.1796 107.075 15.1624 105.785 17.7425C104.543 20.2747 103.922 23.3326 103.922 26.916C103.922 30.4517 104.543 33.5095 105.785 36.0896C107.075 38.6697 108.867 40.6764 111.16 42.1097C113.454 43.4953 116.129 44.1881 119.187 44.1881Z" fill="url(#paint0_linear_322_39680)"/>
<path d="M182.086 52.86C178.455 52.86 175.206 52.2389 172.339 50.9966C169.52 49.7544 167.298 47.9388 165.674 45.5498C164.049 43.1609 163.189 40.2703 163.094 36.8779H173.342C173.39 38.3591 173.748 39.6969 174.417 40.8914C175.134 42.0859 176.137 43.0414 177.427 43.7581C178.717 44.427 180.27 44.7615 182.086 44.7615C183.567 44.7615 184.881 44.5465 186.028 44.1165C187.174 43.6387 188.058 42.9698 188.679 42.1097C189.348 41.2019 189.683 40.0791 189.683 38.7413C189.683 37.308 189.324 36.1135 188.608 35.1579C187.939 34.2023 186.983 33.3901 185.741 32.7212C184.499 32.0045 183.089 31.3834 181.513 30.8578C179.984 30.2844 178.383 29.7111 176.711 29.1378C172.65 27.7522 169.544 25.9604 167.394 23.7626C165.292 21.5648 164.24 18.6742 164.24 15.0907C164.24 12.1762 164.957 9.66781 166.39 7.56554C167.824 5.46326 169.831 3.83877 172.411 2.69208C174.991 1.54538 177.929 0.972036 181.226 0.972036C184.618 0.972036 187.604 1.56927 190.184 2.76375C192.764 3.91044 194.795 5.58271 196.276 7.78054C197.757 9.97837 198.546 12.5584 198.641 15.5207H188.249C188.202 14.2307 187.867 13.1079 187.246 12.1523C186.673 11.1967 185.837 10.4323 184.738 9.85893C183.686 9.28558 182.444 8.99891 181.011 8.99891C179.769 8.95113 178.622 9.14224 177.571 9.57225C176.567 9.95448 175.779 10.5517 175.206 11.364C174.632 12.1284 174.346 13.1557 174.346 14.4457C174.346 15.6402 174.608 16.6435 175.134 17.4558C175.707 18.268 176.496 18.9847 177.499 19.6058C178.55 20.1792 179.769 20.7525 181.154 21.3259C182.588 21.8515 184.188 22.4248 185.956 23.0459C188.488 23.906 190.806 24.9332 192.908 26.1277C195.01 27.2744 196.682 28.7794 197.925 30.6428C199.215 32.5062 199.86 34.919 199.86 37.8813C199.86 40.5569 199.167 43.0414 197.781 45.3348C196.443 47.5804 194.461 49.396 191.833 50.7816C189.205 52.1672 185.956 52.86 182.086 52.86ZM204.911 52V1.83206H217.668L231.93 35.0862H232.216L246.335 1.83206H259.02V52H249.345V17.0258H249.058L236.875 44.8332H226.913L214.872 17.0258H214.586V52H204.911ZM265.451 52V1.83206H278.208L292.47 35.0862H292.757L306.875 1.83206H319.561V52H309.885V17.0258H309.599L297.415 44.8332H287.453L275.413 17.0258H275.126V52H265.451Z" fill="white"/>
<defs>
<linearGradient id="paint0_linear_322_39680" x1="207.858" y1="74" x2="206.756" y2="3.62321" gradientUnits="userSpaceOnUse">
<stop stop-color="#7129FF"/>
<stop offset="1" stop-color="#BD00FD"/>
</linearGradient>
</defs>
</svg>
