<svg width="121" height="121" viewBox="0 0 121 121" fill="none" xmlns="http://www.w3.org/2000/svg">
<g filter="url(#filter0_d_88_174)">
<g clip-path="url(#clip0_88_174)">
<rect x="9" y="5" width="102.375" height="102.375" rx="17.8043" fill="#301F44"/>
<path fill-rule="evenodd" clip-rule="evenodd" d="M84.9768 40.1177C85.8797 41.0206 86.5303 42.1443 86.8638 43.3769C88.7844 51.1075 88.3406 63.3169 86.9011 71.3458C86.5676 72.5784 85.917 73.7021 85.0141 74.605C84.1111 75.5079 82.9874 76.1586 81.7549 76.4921C77.2425 77.7227 59.0814 77.7227 59.0814 77.7227C59.0814 77.7227 40.9203 77.7227 36.408 76.4921C35.1754 76.1586 34.0517 75.5079 33.1487 74.605C32.2458 73.7021 31.5952 72.5784 31.2617 71.3458C29.33 63.6488 29.8595 51.432 31.2244 43.4142C31.5579 42.1816 32.2085 41.0579 33.1115 40.155C34.0144 39.2521 35.1381 38.6015 36.3707 38.2679C40.883 37.0373 59.0441 37 59.0441 37C59.0441 37 77.2052 37 81.7176 38.2306C82.9501 38.5642 84.0739 39.2148 84.9768 40.1177ZM68.3298 57.3614L53.2639 66.0876V48.6351L68.3298 57.3614Z" fill="url(#paint0_linear_88_174)"/>
</g>
</g>
<defs>
<filter id="filter0_d_88_174" x="0.097846" y="0.548923" width="120.179" height="120.179" filterUnits="userSpaceOnUse" color-interpolation-filters="sRGB">
<feFlood flood-opacity="0" result="BackgroundImageFix"/>
<feColorMatrix in="SourceAlpha" type="matrix" values="0 0 0 0 0 0 0 0 0 0 0 0 0 0 0 0 0 0 127 0" result="hardAlpha"/>
<feOffset dy="4.45108"/>
<feGaussianBlur stdDeviation="4.45108"/>
<feComposite in2="hardAlpha" operator="out"/>
<feColorMatrix type="matrix" values="0 0 0 0 0.804808 0 0 0 0 0.0240385 0 0 0 0 1 0 0 0 1 0"/>
<feBlend mode="normal" in2="BackgroundImageFix" result="effect1_dropShadow_88_174"/>
<feBlend mode="normal" in="SourceGraphic" in2="effect1_dropShadow_88_174" result="shape"/>
</filter>
<linearGradient id="paint0_linear_88_174" x1="63.626" y1="77.7227" x2="61.4323" y2="47.0556" gradientUnits="userSpaceOnUse">
<stop stop-color="#7129FF"/>
<stop offset="1" stop-color="#FD00E3"/>
</linearGradient>
<clipPath id="clip0_88_174">
<rect x="9" y="5" width="102.375" height="102.375" rx="17.8043" fill="white"/>
</clipPath>
</defs>
</svg>
