<svg width="59" height="41" viewBox="0 0 59 41" fill="none" xmlns="http://www.w3.org/2000/svg">
<path fill-rule="evenodd" clip-rule="evenodd" d="M54.9768 3.11771C55.8797 4.02062 56.5303 5.14431 56.8638 6.3769C58.7844 14.1075 58.3406 26.3169 56.9011 34.3458C56.5676 35.5784 55.917 36.7021 55.0141 37.605C54.1111 38.5079 52.9874 39.1585 51.7549 39.4921C47.2425 40.7227 29.0814 40.7227 29.0814 40.7227C29.0814 40.7227 10.9203 40.7227 6.40796 39.4921C5.17537 39.1585 4.05167 38.5079 3.14875 37.605C2.24584 36.7021 1.59521 35.5784 1.26168 34.3458C-0.67004 26.6488 -0.140493 14.432 1.22439 6.4142C1.55792 5.18162 2.20854 4.0579 3.11146 3.15499C4.01437 2.25208 5.13808 1.60145 6.37066 1.26793C10.883 0.0372828 29.0441 0 29.0441 0C29.0441 0 47.2052 0 51.7176 1.23063C52.9501 1.56417 54.0739 2.2148 54.9768 3.11771ZM38.3298 20.3613L23.2639 29.0876V11.635L38.3298 20.3613Z" fill="url(#paint0_linear_216_9)"/>
<defs>
<linearGradient id="paint0_linear_216_9" x1="33.626" y1="40.7227" x2="31.4323" y2="10.0556" gradientUnits="userSpaceOnUse">
<stop stop-color="#7129FF"/>
<stop offset="1" stop-color="#FD00E3"/>
</linearGradient>
</defs>
</svg>
